<svg width="21" height="21" viewBox="0 0 21 21" fill="none" xmlns="http://www.w3.org/2000/svg">
<path d="M10.1215 0.933105C4.60746 0.933105 0.12146 5.41911 0.12146 10.9331C0.12146 16.4471 4.60746 20.9331 10.1215 20.9331C15.6355 20.9331 20.1215 16.4471 20.1215 10.9331C20.1215 5.41911 15.6355 0.933105 10.1215 0.933105ZM8.12246 15.3461L5.11691 12.347C4.72616 11.9571 4.72537 11.3243 5.11515 10.9334C5.50517 10.5423 6.13847 10.5416 6.52939 10.9318L8.12046 12.5201L12.7075 7.93311C13.0979 7.54264 13.731 7.54264 14.1215 7.9331C14.5119 8.32357 14.5119 8.95664 14.1215 9.34711L8.12246 15.3461Z" fill="#2FAB73"/>
</svg>
